{"title":"Whiplash (2014) 1080p fiveofseven no cinavia","uid":11945596,"size":3420743387,"categoryP":"video","categoryS":"hd___movies","magnet":"?xt=urn:btih:4096f3f8b877cd830e8629dbeab4363aad945425&amp;dn=Whiplash+%282014%29+1080p+fiveofseven+no+cinavia&amp;tr=udp%3A%2F%2Ftracker.openbittorrent.com%3A80&amp;tr=udp%3A%2F%2Fopen.demonii.com%3A1337&amp;tr=udp%3A%2F%2Ftracker.coppersurfer.tk%3A6969&amp;tr=udp%3A%2F%2Fexodus.desync.com%3A6969","seeders":2,"leechers":0,"uploader":"fiveofseven","files":3,"time":1432063135,"description":"AAC 2.0 Track 1 &amp; AC3 5.1 Track 2\n\n\nPLOT - A promising young drummer enrolls at a cut-throat music \nconservatory where his dreams of greatness are mentored by an \ninstructor who will stop at nothing to realize a student's potential.\n\n\nGeneral\nComplete name                            : Whiplash 1080p fiveofseven no cinavia.mp4\nFormat                                   : MPEG-4\nFormat profile                           : Base Media\nCodec ID                                 : isom\nFile size                                : 3.17 GiB\nDuration                                 : 1h 46mn\nOverall bit rate mode                    : Variable\nOverall bit rate                         : 4 251 Kbps\nEncoded date                             : UTC 2015-03-06 19:15:32\nTagged date                              : UTC 2015-03-06 21:03:54\nWriting application                      : My MP4Box GUI 0.6.0.6 &lt;http://my-mp4box-gui.zymichost.com&gt;\nComment                                  : Encoded by fiveofseven\n\nVideo\nID                                       : 1\nFormat                                   : AVC\nFormat/Info                              : Advanced Video Codec\nFormat profile                           : &lt;a class=&quot;__cf_email__&quot; href=&quot;/cdn-cgi/l/email-protection&quot; data-cfemail=&quot;fcb4959b94bcb0c9d2cc&quot;&gt;[email&amp;#160;protected]&lt;/a&gt;&lt;script data-cfhash='f9e31' type=&quot;text/javascript&quot;&gt;\n/* &lt;![CDATA[ */!function(){try{var t=&quot;currentScript&quot;in document?document.currentScript:function(){for(var t=document.getElementsByTagName(&quot;script&quot;),e=t.length;e--;)if(t[e].getAttribute(&quot;data-cfhash&quot;))return t[e]}();if(t&amp;&amp;t.previousSibling){var e,r,n,i,c=t.previousSibling,a=c.getAttribute(&quot;data-cfemail&quot;);if(a){for(e=&quot;&quot;,r=parseInt(a.substr(0,2),16),n=2;a.length-n;n+=2)i=parseInt(a.substr(n,2),16)^r,e+=String.fromCharCode(i);e=document.createTextNode(e),c.parentNode.replaceChild(e,c)}t.parentNode.removeChild(t);}}catch(u){}}()/* ]]&gt; */&lt;/script&gt;\nFormat settings, CABAC                   : Yes\nFormat settings, ReFrames                : 7 frames\nCodec ID                                 : avc1\nCodec ID/Info                            : Advanced Video Coding\nDuration                                 : 1h 46mn\nBit rate                                 : 3 800 Kbps\nMaximum bit rate                         : 17.6 Mbps\nWidth                                    : 1 920 pixels\nHeight                                   : 800 pixels\nDisplay aspect ratio                     : 2.40:1\nFrame rate mode                          : Constant\nFrame rate                               : 23.976 fps\nColor space                              : YUV\nChroma subsampling                       : 4:2:0\nBit depth                                : 8 bits\nScan type                                : Progressive\nBits/(Pixel*Frame)                       : 0.103\nStream size                              : 2.83 GiB (89%)\nTitle                                    : WL 1080.mp4\nWriting library                          : x264 core 133 r2334 a3ac64b\nEncoding settings                        : No\nLanguage                                 : English\nEncoded date                             : UTC 2015-03-05 04:35:39\nTagged date                              : UTC 2015-03-06 19:18:31\n\nAudio #1\nID                                       : 2\nFormat                                   : AAC\nFormat/Info                              : Advanced Audio Codec\nFormat profile                           : LC\nCodec ID                                 : 40\nDuration                                 : 1h 46mn\nBit rate mode                            : Variable\nBit rate                                 : 128 Kbps\nMaximum bit rate                         : 135 Kbps\nChannel count                            : 2 channels\nChannel positions                        : Front: L R\nSampling rate                            : 48.0 KHz\nCompression mode                         : Lossy\nDelay relative to video                  : -60ms\nStream size                              : 97.7 MiB (3%)\nTitle                                    : aac 2.0.mp4\nLanguage                                 : English\nEncoded date                             : UTC 2015-03-06 19:18:12\nTagged date                              : UTC 2015-03-06 19:18:31\n\nAudio #2\nID                                       : 3\nFormat                                   : AC-3\nFormat/Info                              : Audio Coding 3\nMode extension                           : CM (complete main)\nFormat settings, Endianness              : Big\nCodec ID                                 : ac-3\nDuration                                 : 1h 46mn\nBit rate mode                            : Constant\nBit rate                                 : 320 Kbps\nChannel count                            : 6 channels\nChannel positions                        : Front: L C R, Side: L R, LFE\nSampling rate                            : 48.0 KHz\nBit depth                                : 16 bits\nCompression mode                         : Lossy\nDelay relative to video                  : -60ms\nStream size                              : 244 MiB (8%)\nTitle                                    : ac3 5.1.ac3\nLanguage                                 : English\nEncoded date                             : UTC 2015-03-06 19:18:18\nTagged date                              : UTC 2015-03-06 19:18:31\n\n\nScreenshots - \n  &lt;a href=&quot;\nhttps://yuq.me/users/25/564/2jEwp8FDxy.png&quot; rel=&quot;nofollow&quot; target=&quot;_NEW&quot;&gt;\nhttps://yuq.me/users/25/564/2jEwp8FDxy.png&lt;/a&gt; \n  &lt;a href=&quot;\nhttps://yuq.me/users/25/564/p8aqM0UAxl.png&quot; rel=&quot;nofollow&quot; target=&quot;_NEW&quot;&gt;\nhttps://yuq.me/users/25/564/p8aqM0UAxl.png&lt;/a&gt; \n  &lt;a href=&quot;\nhttps://yuq.me/users/25/564/XSRmT7ud06.png&quot; rel=&quot;nofollow&quot; target=&quot;_NEW&quot;&gt;\nhttps://yuq.me/users/25/564/XSRmT7ud06.png&lt;/a&gt; \n  &lt;a href=&quot;\nhttps://yuq.me/users/25/564/d5QleY7iGs.png&quot; rel=&quot;nofollow&quot; target=&quot;_NEW&quot;&gt;\nhttps://yuq.me/users/25/564/d5QleY7iGs.png&lt;/a&gt; \n \nsignature \n  &lt;a href=&quot;\nhttps://yuq.me/users/25/564/aegRQCBILx.png&quot; rel=&quot;nofollow&quot; target=&quot;_NEW&quot;&gt;\nhttps://yuq.me/users/25/564/aegRQCBILx.png&lt;/a&gt;","torrent":{"xt":"urn:btih:4096f3f8b877cd830e8629dbeab4363aad945425","amp;dn":"Whiplash+%282014%29+1080p+fiveofseven+no+cinavia","amp;tr":["udp%3A%2F%2Ftracker.openbittorrent.com%3A80","udp%3A%2F%2Fopen.demonii.com%3A1337","udp%3A%2F%2Ftracker.coppersurfer.tk%3A6969","udp%3A%2F%2Fexodus.desync.com%3A6969"],"infoHash":"4096f3f8b877cd830e8629dbeab4363aad945425","infoHashBuffer":{"type":"Buffer","data":[64,150,243,248,184,119,205,131,14,134,41,219,234,180,54,58,173,148,84,37]},"announce":[],"urlList":[]}}